<svg xmlns="http://www.w3.org/2000/svg" xmlns:xlink="http://www.w3.org/1999/xlink" viewBox="0 0 616 616"><defs><style>.cls-1{clip-path:url(#clippath)}.cls-2{fill:none}.cls-2,.cls-3,.cls-4{stroke-width:0}.cls-3{fill:#1e1e1e}.cls-4{fill:#faff69}</style><clipPath id="clippath"><rect width="472.55" height="472.55" x="83.23" y="71.73" class="cls-2"/></clipPath></defs><g id="Layer_2" data-name="Layer 2"><rect width="616" height="616" class="cls-4"/></g><g id="Layer_1" data-name="Layer 1"><g class="cls-1"><g><path d="m120.14,113.3c0-2.57,2.09-4.66,4.66-4.66h34.98c2.57,0,4.66,2.09,4.66,4.66v389.38c0,2.57-2.09,4.66-4.66,4.66h-34.98c-2.57,0-4.66-2.09-4.66-4.66V113.3Z" class="cls-3"/><path d="m208.75,113.3c0-2.57,2.09-4.66,4.66-4.66h34.98c2.57,0,4.66,2.09,4.66,4.66v389.38c0,2.57-2.09,4.66-4.66,4.66h-34.98c-2.57,0-4.66-2.09-4.66-4.66V113.3Z" class="cls-3"/><path d="m297.35,113.3c0-2.57,2.09-4.66,4.66-4.66h34.98c2.57,0,4.66,2.09,4.66,4.66v389.38c0,2.57-2.09,4.66-4.66,4.66h-34.98c-2.57,0-4.66-2.09-4.66-4.66V113.3Z" class="cls-3"/><path d="m385.94,113.3c0-2.57,2.09-4.66,4.66-4.66h34.98c2.57,0,4.66,2.09,4.66,4.66v389.38c0,2.57-2.09,4.66-4.66,4.66h-34.98c-2.57,0-4.66-2.09-4.66-4.66V113.3Z" class="cls-3"/><path d="m474.56,268.36c0-2.57,2.09-4.66,4.66-4.66h34.98c2.57,0,4.65,2.09,4.65,4.66v79.28c0,2.57-2.09,4.66-4.65,4.66h-34.98c-2.57,0-4.66-2.09-4.66-4.66v-79.28Z" class="cls-3"/></g></g></g></svg>